<?xml version="1.0" encoding="iso-8859-1"?>
<!-- Uploaded to: SVG Repo, www.svgrepo.com, Generator: SVG Repo Mixer Tools -->
<svg fill="#000000" height="800px" width="800px" version="1.1" id="Layer_1" xmlns="http://www.w3.org/2000/svg" xmlns:xlink="http://www.w3.org/1999/xlink" 
	 viewBox="0 0 469.333 469.333" xml:space="preserve">
<g>
	<g>
		<path d="M416,181.333C416,81.344,334.656,0,234.667,0S53.333,81.344,53.333,181.333c0,44.448,16.139,85.163,42.784,116.736
			c-0.011,0.213-0.117,0.384-0.117,0.597v100.267c0,4.149,2.4,7.915,6.155,9.664l64,29.867l64,29.867
			c1.429,0.672,2.965,1.003,4.512,1.003c1.536,0,3.083-0.331,4.512-1.003l64-29.867l64-29.867c3.755-1.739,6.155-5.515,6.155-9.664
			V298.667c0-0.213-0.107-0.384-0.117-0.597C399.861,266.496,416,225.781,416,181.333z M160,412.053l-42.667-19.904v-72.811
			c12.811,10.912,27.168,20.011,42.667,27.051V412.053z M288,422.005l-53.333,24.885l-53.333-24.885v-67.371
			c16.875,5.205,34.773,8.032,53.333,8.032s36.459-2.827,53.333-8.032V422.005z M352,392.139l-42.667,19.915v-65.664
			c15.499-7.04,29.856-16.139,42.667-27.051V392.139z M234.667,341.333c-88.235,0-160-71.776-160-160s71.765-160,160-160
			c88.224,0,160,71.776,160,160S322.891,341.333,234.667,341.333z"/>
	</g>
</g>
<g>
	<g>
		<path d="M234.667,42.667C158.208,42.667,96,104.875,96,181.333C96,257.792,158.208,320,234.667,320
			s138.667-62.208,138.667-138.667C373.333,104.875,311.125,42.667,234.667,42.667z M234.667,298.667
			c-64.693,0-117.333-52.64-117.333-117.333C117.333,116.64,169.973,64,234.667,64S352,116.64,352,181.333
			C352,246.027,299.36,298.667,234.667,298.667z"/>
	</g>
</g>
<g>
	<g>
		<path d="M302.187,161.312c-1.259-3.851-4.597-6.667-8.619-7.253l-34.101-4.96l-15.253-30.891c-3.584-7.296-15.541-7.296-19.125,0
			l-15.253,30.891l-34.101,4.96c-4.021,0.587-7.36,3.392-8.619,7.253c-1.248,3.861-0.213,8.107,2.699,10.933l24.693,24.043
			l-5.824,33.984c-0.683,4,0.96,8.043,4.235,10.421c3.307,2.4,7.669,2.709,11.232,0.811l30.517-16.021l30.507,16.032
			c1.557,0.821,3.264,1.227,4.96,1.227c2.208,0,4.405-0.683,6.272-2.037c3.285-2.389,4.928-6.421,4.235-10.421l-5.824-33.984
			l24.672-24.053C302.4,169.408,303.435,165.173,302.187,161.312z M255.925,184.939c-2.507,2.443-3.659,5.973-3.061,9.44
			l3.115,18.197l-16.341-8.587c-1.557-0.821-3.253-1.227-4.96-1.227s-3.403,0.405-4.96,1.227l-16.341,8.587l3.115-18.197
			c0.597-3.456-0.555-6.987-3.061-9.44l-13.216-12.885l18.251-2.656c3.477-0.501,6.485-2.688,8.032-5.835l8.171-16.544l8.171,16.544
			c1.557,3.147,4.555,5.333,8.032,5.835l18.272,2.656L255.925,184.939z"/>
	</g>
</g>
<g>
	<g>
		<circle cx="181.333" cy="117.333" r="10.667"/>
	</g>
</g>
<g>
	<g>
		<circle cx="288" cy="117.333" r="10.667"/>
	</g>
</g>
<g>
	<g>
		<circle cx="160" cy="202.667" r="10.667"/>
	</g>
</g>
<g>
	<g>
		<circle cx="309.333" cy="202.667" r="10.667"/>
	</g>
</g>
<g>
	<g>
		<circle cx="234.667" cy="256" r="10.667"/>
	</g>
</g>
</svg>